#!OML:ASF I:\Actors\actors\Patient Classification 1\Patient 1\Session 1\Subject1.ASF
:FULLY-SPECIFIED
:DEGREES
1388
root 0.691817 17.4936 9.64049 9.5788 -0.593333 -10.7776
lowerback 2.1387 1.13096 1.66264
upperback -9.56563 1.665 -0.0405883
thorax -11.3725 0.65704 -1.17044
lowerneck -1.89783 14.5113 18.1264
upperneck 16.0261 19.8826 -7.58333
head 7.84688 10.1865 -3.38621
rclavicle -9.34288e-015 0
rhumerus -18.2541 15.2375 -75.7029
rradius 95.5184
rwrist -9.03408
rhand 9.83919 -37.0477
rfingers 7.12502
rthumb 34.9738 -63.6099
lclavicle -9.34288e-015 0
lhumerus -16.1442 -14.2156 70.3025
lradius 65.7813
lwrist 89.1043
lhand -33.9707 -13.6721
lfingers 7.12502
lthumb -7.15124 16.1871
rfemur -4.87628 16.0623 27.3166
rtibia 7.07976
rfoot -15.623 -21.3354
rtoes 0.229237
lfemur 1.57675 -33.052 -6.46144
ltibia -0.504071
lfoot -14.6384 41.1761
ltoes -1.27398
1389
root 0.696146 17.4943 9.64815 9.72971 -0.733516 -10.7341
lowerback 1.92646 1.16866 1.69135
upperback -9.62824 1.71562 -0.0276476
thorax -11.3129 0.680458 -1.17389
lowerneck -2.00214 14.5905 18.0771
upperneck 16.122 19.9795 -7.54546
head 7.9001 10.2296 -3.34245
rclavicle 6.16232e-015 2.54444e-014
rhumerus -18.0522 15.3892 -75.8066
rradius 95.5291
rwrist -8.97053
rhand 9.97522 -37.0023
rfingers 7.12502
rthumb 35.1028 -63.5343
lclavicle 6.16232e-015 2.54444e-014
lhumerus -18.4959 -15.2709 71.0972
lradius 64.3348
lwrist 88.8847
lhand -34.2746 -13.4301
lfingers 7.12502
lthumb -7.44464 16.4189
rfemur -4.95693 16.2834 27.2042
rtibia 7.00131
rfoot -15.648 -21.3229
rtoes 0.476623
lfemur 1.53343 -33.1455 -6.52729
ltibia -0.549522
lfoot -14.7903 41.4285
ltoes -1.07162
1390
root 0.701319 17.4923 9.65735 9.86566 -1.0015 -10.6715
lowerback 1.74151 1.21537 1.70646
upperback -9.67759 1.77739 -0.0136253
thorax -11.2548 0.710484 -1.17008
lowerneck -1.97907 14.6684 18.0301
upperneck 15.9752 20.0847 -7.5475
head 7.85601 10.276 -3.32695
rclavicle 1.37161e-014 4.77083e-015
rhumerus -18.0814 15.3454 -76.067
rradius 95.5608
rwrist -8.60973
rhand 10.1657 -36.7102
rfingers 7.12502
rthumb 35.2835 -63.1996
lclavicle 1.37161e-014 4.77083e-015
lhumerus -21.4158 -16.4898 71.912
lradius 63.7262
lwrist 89.0594
lhand -35.2699 -13.493
lfingers 7.12502
lthumb -8.40526 16.3198
rfemur -5.03012 16.4699 27.0441
rtibia 6.90944
rfoot -15.5228 -21.1898
rtoes 0.238002
lfemur 1.56528 -33.1969 -6.68058
ltibia -0.587554
lfoot -14.9311 41.7364
ltoes -0.865052
1391
root 0.708997 17.4894 9.66904 9.98443 -1.36534 -10.5795
lowerback 1.5899 1.25882 1.7122
upperback -9.70711 1.8341 0.00049095
thorax -11.1947 0.738852 -1.16068
lowerneck -2.04752 14.7627 17.8928
upperneck 15.8081 20.1848 -7.46326
head 7.80094 10.3173 -3.26788
rclavicle 1.11319e-014 2.54444e-014
rhumerus -18.2958 15.0986 -76.4726
rradius 95.7526
rwrist -8.06593
rhand 10.3319 -36.2854
rfingers 7.12502
rthumb 35.4411 -62.7373
lclavicle 1.11319e-014 2.54444e-014
lhumerus -24.9023 -17.4957 72.7288
lradius 64.0237
lwrist 90.2179
lhand -36.1347 -13.7226
lfingers 7.12502
lthumb -9.23978 16.0549
rfemur -5.0856 16.7217 26.8359
rtibia 6.83361
rfoot -15.4419 -20.9857
rtoes 0.210532
lfemur 1.67267 -33.2562 -6.94621
ltibia -0.618268
lfoot -15.0376 42.1398
ltoes -0.796781
1392
root 0.717638 17.4877 9.68022 10.0974 -1.85584 -10.4545
lowerback 1.4969 1.3388 1.65726
upperback -9.72652 1.93633 0.0103234
thorax -11.159 0.794253 -1.1283
lowerneck -2.28402 14.8627 17.7779
upperneck 15.9109 20.27 -7.3128
head 7.85779 10.354 -3.17189
rclavicle 3.3197e-014 0
rhumerus -18.2032 14.9899 -76.7253
rradius 95.9597
rwrist -7.59289
rhand 10.4942 -36.2767
rfingers 7.12502
rthumb 35.5949 -62.6917
lclavicle 3.3197e-014 0
lhumerus -28.9478 -18.167 73.6568
lradius 65.3788
lwrist 92.0957
lhand -36.7961 -14.0507
lfingers 7.12502
lthumb -9.87796 15.6976
rfemur -5.1598 17.0916 26.5821
rtibia 6.79816
rfoot -15.3977 -20.7865
rtoes 0.309501
lfemur 1.86037 -33.3887 -7.32347
ltibia -0.647189
lfoot -15.4643 42.6808
ltoes -0.198264
1393
root 0.725933 17.4862 9.69147 10.2225 -2.43439 -10.3906
lowerback 1.46237 1.43124 1.65257
upperback -9.75224 2.06106 0.0268016
thorax -11.1646 0.855668 -1.12089
lowerneck -2.62049 14.9658 17.7335
upperneck 16.2143 20.3515 -7.16052
head 8.00583 10.3911 -3.06991
rclavicle -2.24627e-014 3.97569e-014
rhumerus -17.9204 15.1504 -76.8337
rradius 95.9972
rwrist -7.28912
rhand 10.5752 -36.4004
rfingers 7.12502
rthumb 35.6717 -62.7969
lclavicle -2.24627e-014 3.97569e-014
lhumerus -33.5474 -18.6086 74.6597
lradius 67.8151
lwrist 94.2336
lhand -37.2775 -14.2749
lfingers 7.12502
lthumb -10.3423 15.4508
rfemur -5.27332 17.3746 26.3816
rtibia 6.79064
rfoot -15.2782 -20.4865
rtoes 0.0688821
lfemur 2.08457 -33.47 -7.65238
ltibia -0.679051
lfoot -16.0508 43.2251
ltoes 0.643564
1394
root 0.735383 17.4844 9.70518 10.374 -3.11063 -10.3873
lowerback 1.41155 1.50662 1.75045
upperback -9.77085 2.16857 0.0359928
thorax -11.1491 0.899089 -1.17575
lowerneck -2.85525 15.0839 17.7849
upperneck 16.4207 20.4729 -7.09925
head 8.1299 10.4483 -3.01195
rclavicle -1.0138e-014 -3.81667e-014
rhumerus -17.7065 15.4754 -76.9722
rradius 95.9412
rwrist -7.21285
rhand 10.4966 -36.2829
rfingers 7.12502
rthumb 35.5972 -62.6974
lclavicle -1.0138e-014 -3.81667e-014
lhumerus -38.5682 -18.8863 75.637
lradius 71.1291
lwrist 95.9886
lhand -37.4422 -14.1405
lfingers 7.12502
lthumb -10.5012 15.5771
rfemur -5.44084 17.5222 26.2137
rtibia 6.83448
rfoot -15.1658 -19.9627
rtoes -0.277399
lfemur 2.32783 -33.4312 -7.93697
ltibia -0.700073
lfoot -16.7407 43.7289
ltoes 1.58531
1395
root 0.744136 17.4836 9.72124 10.5827 -3.90554 -10.36
lowerback 1.29412 1.60882 1.8141
upperback -9.80136 2.30461 0.00867353
thorax -11.105 0.957852 -1.25149
lowerneck -2.83627 15.1921 17.936
upperneck 16.342 20.623 -7.18672
head 8.14583 10.5201 -3.03654
rclavicle 1.25234e-014 -1.90833e-014
rhumerus -17.5346 15.7414 -77.15
rradius 95.943
rwrist -7.32771
rhand 10.4045 -36.1781
rfingers 7.12502
rthumb 35.5099 -62.6135
lclavicle 1.25234e-014 -1.90833e-014
lhumerus -43.7396 -19.0201 76.6219
lradius 74.8913
lwrist 97.1099
lhand -37.5184 -14.0308
lfingers 7.12502
lthumb -10.5747 15.6831
rfemur -5.703 17.6714 25.9743
rtibia 6.9216
rfoot -15.0813 -19.2975
rtoes -0.328174
lfemur 2.57852 -33.4037 -8.26583
ltibia -0.763679
lfoot -17.5101 44.3563
ltoes 2.54958
1396
root 0.752224 17.4842 9.73759 10.8012 -4.77273 -10.3344
lowerback 1.17124 1.74966 1.83669
upperback -9.82884 2.48816 -0.0349184
thorax -11.053 1.04282 -1.32601
lowerneck -2.7389 15.2895 18.0382
upperneck 16.1124 20.7681 -7.29391
head 8.09391 10.587 -3.0733
rclavicle -2.40529e-014 3.18055e-014
rhumerus -17.3533 15.8923 -77.298
rradius 96.0068
rwrist -7.51391
rhand 10.3712 -36.2226
rfingers 7.12502
rthumb 35.4783 -62.6656
lclavicle -2.40529e-014 3.18055e-014
lhumerus -48.789 -18.9766 77.5667
lradius 78.6493
lwrist 98.0372
lhand -37.4501 -14.5234
lfingers 7.12502
lthumb -10.5089 15.194
rfemur -5.97988 17.8121 25.7218
rtibia 6.99624
rfoot -14.9406 -18.5605
rtoes -0.44233
lfemur 2.85617 -33.4308 -8.62597
ltibia -0.852434
lfoot -18.2117 45.1219
ltoes 3.31978
1397
root 0.761348 17.4844 9.75432 10.9752 -5.64671 -10.3459
lowerback 1.06418 1.85494 1.88962
upperback -9.82891 2.62931 -0.0348306
thorax -10.9811 1.10725 -1.36551
lowerneck -1.99543 15.3204 18.0568
upperneck 14.9959 20.9441 -7.78796
head 7.67423 10.6547 -3.29668
rclavicle 3.97569e-015 -4.77083e-015
rhumerus -16.9 16.3157 -77.3082
rradius 95.9884
rwrist -7.75297
rhand 10.3344 -36.4817
rfingers 7.12502
rthumb 35.4435 -62.933
lclavicle 3.97569e-015 -4.77083e-015
lhumerus -53.616 -18.3953 78.1582
lradius 82.7804
lwrist 100.134
lhand -38.1011 -14.7264
lfingers 7.12502
lthumb -11.1368 14.9581
rfemur -6.18732 17.9142 25.5294
rtibia 7.04032
rfoot -14.7322 -17.8019
rtoes -1.20514
lfemur 3.14436 -33.3716 -8.97656
ltibia -0.857743
lfoot -19.0388 45.7834
ltoes 4.31547
1398
root 0.769393 17.4832 9.77179 11.1261 -6.4921 -10.3663
lowerback 0.984401 1.91949 1.92813
upperback -9.83806 2.71839 0.00400706
thorax -10.9405 1.14912 -1.35115
lowerneck -0.681417 15.2693 18.0246
upperneck 13.0867 21.097 -8.63138
head 6.9374 10.7077 -3.69618
rclavicle -3.97569e-016 -2.8625e-014
rhumerus -16.5178 16.7139 -77.3367
rradius 95.9981
rwrist -7.72926
rhand 10.4677 -36.7059
rfingers 7.12502
rthumb 35.5698 -63.127
lclavicle -3.97569e-016 -2.8625e-014
lhumerus -58.3685 -17.5208 78.5748
lradius 87.1575
lwrist 101.938
lhand -39.4514 -14.3148
lfingers 7.12502
lthumb -12.4389 15.2951
rfemur -6.37126 18.0554 25.3703
rtibia 7.0955
rfoot -14.5418 -17.117
rtoes -1.98699
lfemur 3.44225 -33.2249 -9.30217
ltibia -0.859247
lfoot -20.0448 46.2886
ltoes 5.53327
1399
root 0.777608 17.4815 9.78868 11.2437 -7.32507 -10.3949
lowerback 0.960251 2.01742 1.95909
upperback -9.84377 2.84976 -0.0011295
thorax -10.9262 1.20947 -1.38598
lowerneck -0.0198914 15.2454 18.0532
upperneck 11.995 21.1648 -9.12077
head 6.54177 10.7309 -3.92665
rclavicle -2.3059e-014 -1.11319e-014
rhumerus -16.647 16.5833 -77.5275
rradius 96.1648
rwrist -7.36137
rhand 10.7661 -36.5659
rfingers 7.12502
rthumb 35.8526 -62.9185
lclavicle -2.3059e-014 -1.11319e-014
lhumerus -62.9003 -16.6966 78.7749
lradius 92.0307
lwrist 103.224
lhand -39.4648 -13.9766
lfingers 7.12502
lthumb -12.4518 15.6324
rfemur -6.52792 18.2045 25.2335
rtibia 7.16113
rfoot -14.3619 -16.4593
rtoes -2.4042
lfemur 3.85037 -33.2196 -9.68478
ltibia -0.944443
lfoot -21.1512 46.8927
ltoes 6.78545
1400
root 0.78654 17.4796 9.806 11.3064 -8.14319 -10.422
lowerback 0.906724 2.14727 1.97204
upperback -9.79103 3.01818 -0.043648
thorax -10.8245 1.28958 -1.45136
lowerneck 0.0833926 15.2727 18.117
upperneck 11.6548 21.2121 -9.28035
head 6.44671 10.7488 -3.99419
rclavicle -4.13472e-014 2.8625e-014
rhumerus -16.7471 16.4122 -77.5805
rradius 96.2757
rwrist -7.12782
rhand 10.9223 -36.3384
rfingers 7.12502
rthumb 36.0006 -62.6548
lclavicle -4.13472e-014 2.8625e-014
lhumerus -67.0222 -16.062 78.8872
lradius 97.2029
lwrist 103.609
lhand -38.4509 -14.0332
lfingers 7.12502
lthumb -11.4742 15.6327
rfemur -6.63743 18.3335 25.1134
rtibia 7.24372
rfoot -14.1534 -15.8324
rtoes -2.84385
lfemur 4.35004 -33.3398 -10.147
ltibia -1.05611
lfoot -22.1946 47.5977
ltoes 7.99585
1401
root 0.793294 17.4781 9.82316 11.3742 -8.92325 -10.4856
lowerback 0.813537 2.3033 1.98225
upperback -9.74233 3.22191 -0.0762368
thorax -10.7026 1.38845 -1.50566
lowerneck 0.161559 15.2613 18.1159
upperneck 11.3768 21.2026 -9.39294
head 6.3559 10.7391 -4.04447
rclavicle 3.37934e-014 -2.8625e-014
rhumerus -16.7408 16.3387 -77.4552
rradius 96.3726
rwrist -7.1748
rhand 11.0604 -36.3692
rfingers 7.12502
rthumb 36.1314 -62.6534
lclavicle 3.37934e-014 -2.8625e-014
lhumerus -70.4481 -15.5191 78.7421
lradius 102.734
lwrist 104.327
lhand -38.7166 -14.2862
lfingers 7.12502
lthumb -11.7303 15.3654
rfemur -6.78538 18.4734 25.0475
rtibia 7.39609
rfoot -13.9751 -15.2741
rtoes -3.46066
lfemur 4.81769 -33.4522 -10.5257
ltibia -1.17745
lfoot -23.1407 48.243
ltoes 9.1589
1402
root 0.796823 17.4783 9.83648 11.4493 -9.58509 -10.5168
lowerback 0.747628 2.48112 1.94243
upperback -9.74387 3.45187 -0.131946
thorax -10.6548 1.50194 -1.56158
lowerneck 0.157269 15.1926 18.1222
upperneck 11.3084 21.1065 -9.4336
head 6.32677 10.6905 -4.07319
rclavicle -5.76476e-015 4.77083e-015
rhumerus -16.8851 16.1032 -77.3013
rradius 96.5752
rwrist -7.422
rhand 11.257 -36.4943
rfingers 7.12502
rthumb 36.3176 -62.7322
lclavicle -5.76476e-015 4.77083e-015
lhumerus -72.8874 -15.2385 78.3427
lradius 108.167
lwrist 104.916
lhand -37.4889 -14.5468
lfingers 7.12502
lthumb -10.5463 15.1686
rfemur -6.95226 18.5793 24.9639
rtibia 7.55851
rfoot -13.8779 -14.7667
rtoes -4.02952
lfemur 5.17203 -33.5369 -10.8439
ltibia -1.25753
lfoot -24.0191 48.7451
ltoes 10.1163
